<?xml version="1.0" standalone="no"?><!DOCTYPE svg PUBLIC "-//W3C//DTD SVG 1.1//EN" "http://www.w3.org/Graphics/SVG/1.1/DTD/svg11.dtd"><svg t="1734575729332" class="icon" viewBox="0 0 1024 1024" version="1.1" xmlns="http://www.w3.org/2000/svg" p-id="1489" xmlns:xlink="http://www.w3.org/1999/xlink" width="200" height="200"><path d="M258.006703 790.106995h508.583181v78.996169h-508.583181v-78.996169z m37.480637-30.342052c0-9.001001 5.431709-15.287171 17.071817-15.287171H714.598766c7.216355 0 15.287171 5.819542 15.287171 14.821567v30.806633H295.48734v-30.341029z m411.894047-15.286148H317.603033V526.115486l0.465604-1.862418c0.387833-1.396813 9.622148-35.928281 38.178531-70.381977 16.838503-20.331048 37.015032-36.627199 59.906392-48.188512 28.323069-14.588253 60.915371-21.88238 96.688109-21.88238 36.549427 0 69.450768 7.371898 97.92938 21.960151 22.969131 11.794627 42.990117 28.16855 59.59633 48.731888 28.013007 34.841529 36.238342 69.684082 36.626175 71.080895l0.387833 1.706875v238.306524-21.107737z m-347.021551-8.76871l307.912835 1.086751V531.159362c-1.784646-6.362918-8.846482-27.780717-29.953196-53.621245-26.461675-30.341029-70.071915-53.697993-126.951367-53.697993-55.638181 0-98.472755 24.753777-125.166721 55.094806-21.417799 25.530466-28.323069 46.171576-30.4188 52.922327l-0.697894 203.775056 5.275143 0.077772z" fill="#5386EC" p-id="1490"></path><path d="M473.576387 459.848223l0.470721 29.563316s-0.706081 7.060813-0.470721 7.060813c-0.542352 0-11.481496 0.542352-27.00505 15.523555-16.372899 16.055674-15.359826 28.632107-15.359826 29.40982l-35.621289-0.081865c0-1.320065 0.153496-31.81459 26.145473-56.875358 24.917506-24.139793 49.200562-24.753777 51.840692-24.600281zM395.436726 566.855352h35.150568v112.512517h-35.150568z" fill="#FE832F" p-id="1491"></path><path d="M511.987209 356.833011c15.918551 0 29.639041-12.915148 29.63904-28.882817V183.779653c0-15.942087-13.721513-28.881794-29.63904-28.881794-15.919575 0-29.615505 12.915148-29.615505 28.881794v144.170541c0 15.96767 13.69593 28.882817 29.615505 28.882817zM391.229914 338.204745a14.459317 14.459317 0 0 0 10.205433 4.199649c3.685949 0 7.372921-1.416256 10.180873-4.199649 5.615904-5.664 5.615904-14.81952 0-20.361747l-101.981672-102.006231c-5.615904-5.664-14.746866-5.664-20.386306 0-5.640464 5.615904-5.640464 14.771425 0 20.36277l101.981672 102.005208zM622.587166 342.404394c3.685949 0 7.348362-1.416256 10.180873-4.199649l101.95609-102.005208c5.640464-5.591345 5.640464-14.746866 0-20.36277-5.615904-5.664-14.745842-5.664-20.386306 0l-101.95609 102.006231c-5.615904 5.542226-5.615904 14.697747 0 20.361747 2.831488 2.783393 6.493901 4.199649 10.205433 4.199649zM895.303384 374.851387c-2.563382-15.69854-17.188474-26.41665-33.107025-23.731494l-142.290727 23.340591c-15.7231 2.613524-26.368554 17.45658-23.805172 33.156144 2.319835 14.136975 14.551414 24.122397 28.443819 24.122397 1.563612 0 3.077082-0.121773 4.687766-0.390903l142.315286-23.340591c15.69854-2.539846 26.367531-17.408485 23.756053-33.156144zM299.478234 431.739025c13.892405 0 26.100448-9.985422 28.443819-24.122397 2.563382-15.69854-8.081049-30.54262-23.804149-33.156144L161.802618 351.119893c-15.96767-2.832512-30.567179 8.03193-33.107026 23.731494-2.612501 15.772218 8.05649 30.616298 23.756054 33.156144l142.290727 23.340591c1.610684 0.268106 3.174296 0.390903 4.735861 0.390903z" fill="#FE832F" p-id="1492"></path></svg>